<svg aria-roledescription="er" role="graphics-document document" viewBox="0 0 710.9921875 964" style="max-width: 710.992px; background-color: white;" xmlns:xlink="http://www.w3.org/1999/xlink" xmlns="http://www.w3.org/2000/svg" width="100%" id="mermaid-0"><style>#mermaid-0{font-family:"trebuchet ms",verdana,arial,sans-serif;font-size:16px;fill:#000000;}#mermaid-0 .error-icon{fill:#552222;}#mermaid-0 .error-text{fill:#552222;stroke:#552222;}#mermaid-0 .edge-thickness-normal{stroke-width:2px;}#mermaid-0 .edge-thickness-thick{stroke-width:3.5px;}#mermaid-0 .edge-pattern-solid{stroke-dasharray:0;}#mermaid-0 .edge-pattern-dashed{stroke-dasharray:3;}#mermaid-0 .edge-pattern-dotted{stroke-dasharray:2;}#mermaid-0 .marker{fill:#000000;stroke:#000000;}#mermaid-0 .marker.cross{stroke:#000000;}#mermaid-0 svg{font-family:"trebuchet ms",verdana,arial,sans-serif;font-size:16px;}#mermaid-0 .entityBox{fill:#cde498;stroke:#13540c;}#mermaid-0 .attributeBoxOdd{fill:#ffffff;stroke:#13540c;}#mermaid-0 .attributeBoxEven{fill:#f2f2f2;stroke:#13540c;}#mermaid-0 .relationshipLabelBox{fill:hsl(78.1578947368, 58.4615384615%, 84.5098039216%);opacity:0.7;background-color:hsl(78.1578947368, 58.4615384615%, 84.5098039216%);}#mermaid-0 .relationshipLabelBox rect{opacity:0.5;}#mermaid-0 .relationshipLine{stroke:#000000;}#mermaid-0 .entityTitleText{text-anchor:middle;font-size:18px;fill:#000000;}#mermaid-0 :root{--mermaid-font-family:"trebuchet ms",verdana,arial,sans-serif;}</style><g/><defs><marker orient="auto" markerHeight="18" markerWidth="18" refY="9" refX="0" id="ONLY_ONE_START"><path d="M9,0 L9,18 M15,0 L15,18" fill="none" stroke="gray"/></marker></defs><defs><marker orient="auto" markerHeight="18" markerWidth="18" refY="9" refX="18" id="ONLY_ONE_END"><path d="M3,0 L3,18 M9,0 L9,18" fill="none" stroke="gray"/></marker></defs><defs><marker orient="auto" markerHeight="18" markerWidth="30" refY="9" refX="0" id="ZERO_OR_ONE_START"><circle r="6" cy="9" cx="21" fill="white" stroke="gray"/><path d="M9,0 L9,18" fill="none" stroke="gray"/></marker></defs><defs><marker orient="auto" markerHeight="18" markerWidth="30" refY="9" refX="30" id="ZERO_OR_ONE_END"><circle r="6" cy="9" cx="9" fill="white" stroke="gray"/><path d="M21,0 L21,18" fill="none" stroke="gray"/></marker></defs><defs><marker orient="auto" markerHeight="36" markerWidth="45" refY="18" refX="18" id="ONE_OR_MORE_START"><path d="M0,18 Q 18,0 36,18 Q 18,36 0,18 M42,9 L42,27" fill="none" stroke="gray"/></marker></defs><defs><marker orient="auto" markerHeight="36" markerWidth="45" refY="18" refX="27" id="ONE_OR_MORE_END"><path d="M3,9 L3,27 M9,18 Q27,0 45,18 Q27,36 9,18" fill="none" stroke="gray"/></marker></defs><defs><marker orient="auto" markerHeight="36" markerWidth="57" refY="18" refX="18" id="ZERO_OR_MORE_START"><circle r="6" cy="18" cx="48" fill="white" stroke="gray"/><path d="M0,18 Q18,0 36,18 Q18,36 0,18" fill="none" stroke="gray"/></marker></defs><defs><marker orient="auto" markerHeight="36" markerWidth="57" refY="18" refX="39" id="ZERO_OR_MORE_END"><circle r="6" cy="18" cx="9" fill="white" stroke="gray"/><path d="M21,18 Q39,0 57,18 Q39,36 21,18" fill="none" stroke="gray"/></marker></defs><path style="stroke: gray; fill: none;" marker-start="url(#ZERO_OR_MORE_START)" marker-end="url(#ONLY_ONE_END)" d="M119.203125,710L119.203125,718.3333333333334C119.203125,726.6666666666666,119.203125,743.3333333333334,148.28059895833334,764.2216768297079C177.35807291666666,785.1100203260822,235.51302083333334,810.2200406521646,264.5904947916667,822.7750508152058L293.66796875,835.3300609782468" class="er relationshipLine"/><path style="stroke: gray; fill: none;" marker-start="url(#ZERO_OR_MORE_START)" marker-end="url(#ONLY_ONE_END)" d="M390.17578125,622L390.17578125,645C390.17578125,668,390.17578125,714,390.17578125,745.3333333333334C390.17578125,776.6666666666666,390.17578125,793.3333333333334,390.17578125,801.6666666666666L390.17578125,810" class="er relationshipLine"/><path style="stroke: gray; fill: none;" marker-start="url(#ZERO_OR_MORE_START)" marker-end="url(#ZERO_OR_ONE_END)" d="M626.46875,333L626.46875,343.1666666666667C626.46875,353.3333333333333,626.46875,373.6666666666667,626.46875,403.1666666666667C626.46875,432.6666666666667,626.46875,471.3333333333333,626.46875,490.6666666666667L626.46875,510" class="er relationshipLine"/><path style="stroke: gray; fill: none;" marker-start="url(#ZERO_OR_MORE_START)" marker-end="url(#ONLY_ONE_END)" d="M487.3165707236842,88L473.1655016447368,100C459.0144325657895,112,430.7122944078947,136,416.56122532894733,156.33333333333334C402.41015625,176.66666666666666,402.41015625,193.33333333333334,402.41015625,201.66666666666666L402.41015625,210" class="er relationshipLine"/><path style="stroke: gray; fill: none;" marker-start="url(#ZERO_OR_MORE_START)" marker-end="url(#ONLY_ONE_END)" d="M541.5623355263158,88L555.7134046052632,100C569.8644736842106,112,598.1666118421052,136,612.3176809210527,158.16666666666666C626.46875,180.33333333333334,626.46875,200.66666666666666,626.46875,210.83333333333334L626.46875,221" class="er relationshipLine"/><path style="stroke: gray; fill: none;" marker-start="url(#ZERO_OR_MORE_START)" marker-end="url(#ZERO_OR_ONE_END)" d="M626.46875,644L626.46875,663.3333333333334C626.46875,682.6666666666666,626.46875,721.3333333333334,603.1712239583334,752.2023909892932C579.8736979166666,783.071448645253,533.2786458333334,806.142897290506,509.9811197916667,817.6786216131326L486.68359375,829.2143459357591" class="er relationshipLine"/><g transform="translate(20,444 )" id="entity-Account-3e57c4b6-cd9d-514f-a2f6-ac5478bb332e"><rect height="266" width="198.40625" y="0" x="0" class="er entityBox"/><text style="dominant-baseline: middle; text-anchor: middle; font-size: 12px;" transform="translate(99.203125,12)" y="0" x="0" id="text-entity-Account-3e57c4b6-cd9d-514f-a2f6-ac5478bb332e" class="er entityLabel">Account</text><rect height="22" width="36.5234375" y="24" x="0" class="er attributeBoxOdd"/><text style="dominant-baseline: middle; font-size: 10.2px;" transform="translate(5,35)" y="0" x="0" id="text-entity-Account-3e57c4b6-cd9d-514f-a2f6-ac5478bb332e-attr-1-type" class="er entityLabel">String</text><rect height="22" width="93.5390625" y="24" x="36.5234375" class="er attributeBoxOdd"/><text style="dominant-baseline: middle; font-size: 10.2px;" transform="translate(41.5234375,35)" y="0" x="0" id="text-entity-Account-3e57c4b6-cd9d-514f-a2f6-ac5478bb332e-attr-1-name" class="er entityLabel">id</text><rect height="22" width="21.5625" y="24" x="130.0625" class="er attributeBoxOdd"/><text style="dominant-baseline: middle; font-size: 10.2px;" transform="translate(135.0625,35)" y="0" x="0" id="text-entity-Account-3e57c4b6-cd9d-514f-a2f6-ac5478bb332e-attr-1-key" class="er entityLabel">PK</text><rect height="22" width="46.78125" y="24" x="151.625" class="er attributeBoxOdd"/><text style="dominant-baseline: middle; font-size: 10.2px;" transform="translate(156.625,35)" y="0" x="0" id="text-entity-Account-3e57c4b6-cd9d-514f-a2f6-ac5478bb332e-attr-1-comment" class="er entityLabel"/><rect height="22" width="36.5234375" y="46" x="0" class="er attributeBoxEven"/><text style="dominant-baseline: middle; font-size: 10.2px;" transform="translate(5,57)" y="0" x="0" id="text-entity-Account-3e57c4b6-cd9d-514f-a2f6-ac5478bb332e-attr-2-type" class="er entityLabel">String</text><rect height="22" width="93.5390625" y="46" x="36.5234375" class="er attributeBoxEven"/><text style="dominant-baseline: middle; font-size: 10.2px;" transform="translate(41.5234375,57)" y="0" x="0" id="text-entity-Account-3e57c4b6-cd9d-514f-a2f6-ac5478bb332e-attr-2-name" class="er entityLabel">type</text><rect height="22" width="21.5625" y="46" x="130.0625" class="er attributeBoxEven"/><text style="dominant-baseline: middle; font-size: 10.2px;" transform="translate(135.0625,57)" y="0" x="0" id="text-entity-Account-3e57c4b6-cd9d-514f-a2f6-ac5478bb332e-attr-2-key" class="er entityLabel"/><rect height="22" width="46.78125" y="46" x="151.625" class="er attributeBoxEven"/><text style="dominant-baseline: middle; font-size: 10.2px;" transform="translate(156.625,57)" y="0" x="0" id="text-entity-Account-3e57c4b6-cd9d-514f-a2f6-ac5478bb332e-attr-2-comment" class="er entityLabel"/><rect height="22" width="36.5234375" y="68" x="0" class="er attributeBoxOdd"/><text style="dominant-baseline: middle; font-size: 10.2px;" transform="translate(5,79)" y="0" x="0" id="text-entity-Account-3e57c4b6-cd9d-514f-a2f6-ac5478bb332e-attr-3-type" class="er entityLabel">String</text><rect height="22" width="93.5390625" y="68" x="36.5234375" class="er attributeBoxOdd"/><text style="dominant-baseline: middle; font-size: 10.2px;" transform="translate(41.5234375,79)" y="0" x="0" id="text-entity-Account-3e57c4b6-cd9d-514f-a2f6-ac5478bb332e-attr-3-name" class="er entityLabel">provider</text><rect height="22" width="21.5625" y="68" x="130.0625" class="er attributeBoxOdd"/><text style="dominant-baseline: middle; font-size: 10.2px;" transform="translate(135.0625,79)" y="0" x="0" id="text-entity-Account-3e57c4b6-cd9d-514f-a2f6-ac5478bb332e-attr-3-key" class="er entityLabel"/><rect height="22" width="46.78125" y="68" x="151.625" class="er attributeBoxOdd"/><text style="dominant-baseline: middle; font-size: 10.2px;" transform="translate(156.625,79)" y="0" x="0" id="text-entity-Account-3e57c4b6-cd9d-514f-a2f6-ac5478bb332e-attr-3-comment" class="er entityLabel"/><rect height="22" width="36.5234375" y="90" x="0" class="er attributeBoxEven"/><text style="dominant-baseline: middle; font-size: 10.2px;" transform="translate(5,101)" y="0" x="0" id="text-entity-Account-3e57c4b6-cd9d-514f-a2f6-ac5478bb332e-attr-4-type" class="er entityLabel">String</text><rect height="22" width="93.5390625" y="90" x="36.5234375" class="er attributeBoxEven"/><text style="dominant-baseline: middle; font-size: 10.2px;" transform="translate(41.5234375,101)" y="0" x="0" id="text-entity-Account-3e57c4b6-cd9d-514f-a2f6-ac5478bb332e-attr-4-name" class="er entityLabel">providerAccountId</text><rect height="22" width="21.5625" y="90" x="130.0625" class="er attributeBoxEven"/><text style="dominant-baseline: middle; font-size: 10.2px;" transform="translate(135.0625,101)" y="0" x="0" id="text-entity-Account-3e57c4b6-cd9d-514f-a2f6-ac5478bb332e-attr-4-key" class="er entityLabel"/><rect height="22" width="46.78125" y="90" x="151.625" class="er attributeBoxEven"/><text style="dominant-baseline: middle; font-size: 10.2px;" transform="translate(156.625,101)" y="0" x="0" id="text-entity-Account-3e57c4b6-cd9d-514f-a2f6-ac5478bb332e-attr-4-comment" class="er entityLabel"/><rect height="22" width="36.5234375" y="112" x="0" class="er attributeBoxOdd"/><text style="dominant-baseline: middle; font-size: 10.2px;" transform="translate(5,123)" y="0" x="0" id="text-entity-Account-3e57c4b6-cd9d-514f-a2f6-ac5478bb332e-attr-5-type" class="er entityLabel">String</text><rect height="22" width="93.5390625" y="112" x="36.5234375" class="er attributeBoxOdd"/><text style="dominant-baseline: middle; font-size: 10.2px;" transform="translate(41.5234375,123)" y="0" x="0" id="text-entity-Account-3e57c4b6-cd9d-514f-a2f6-ac5478bb332e-attr-5-name" class="er entityLabel">refresh_token</text><rect height="22" width="21.5625" y="112" x="130.0625" class="er attributeBoxOdd"/><text style="dominant-baseline: middle; font-size: 10.2px;" transform="translate(135.0625,123)" y="0" x="0" id="text-entity-Account-3e57c4b6-cd9d-514f-a2f6-ac5478bb332e-attr-5-key" class="er entityLabel"/><rect height="22" width="46.78125" y="112" x="151.625" class="er attributeBoxOdd"/><text style="dominant-baseline: middle; font-size: 10.2px;" transform="translate(156.625,123)" y="0" x="0" id="text-entity-Account-3e57c4b6-cd9d-514f-a2f6-ac5478bb332e-attr-5-comment" class="er entityLabel">nullable</text><rect height="22" width="36.5234375" y="134" x="0" class="er attributeBoxEven"/><text style="dominant-baseline: middle; font-size: 10.2px;" transform="translate(5,145)" y="0" x="0" id="text-entity-Account-3e57c4b6-cd9d-514f-a2f6-ac5478bb332e-attr-6-type" class="er entityLabel">String</text><rect height="22" width="93.5390625" y="134" x="36.5234375" class="er attributeBoxEven"/><text style="dominant-baseline: middle; font-size: 10.2px;" transform="translate(41.5234375,145)" y="0" x="0" id="text-entity-Account-3e57c4b6-cd9d-514f-a2f6-ac5478bb332e-attr-6-name" class="er entityLabel">access_token</text><rect height="22" width="21.5625" y="134" x="130.0625" class="er attributeBoxEven"/><text style="dominant-baseline: middle; font-size: 10.2px;" transform="translate(135.0625,145)" y="0" x="0" id="text-entity-Account-3e57c4b6-cd9d-514f-a2f6-ac5478bb332e-attr-6-key" class="er entityLabel"/><rect height="22" width="46.78125" y="134" x="151.625" class="er attributeBoxEven"/><text style="dominant-baseline: middle; font-size: 10.2px;" transform="translate(156.625,145)" y="0" x="0" id="text-entity-Account-3e57c4b6-cd9d-514f-a2f6-ac5478bb332e-attr-6-comment" class="er entityLabel">nullable</text><rect height="22" width="36.5234375" y="156" x="0" class="er attributeBoxOdd"/><text style="dominant-baseline: middle; font-size: 10.2px;" transform="translate(5,167)" y="0" x="0" id="text-entity-Account-3e57c4b6-cd9d-514f-a2f6-ac5478bb332e-attr-7-type" class="er entityLabel">Int</text><rect height="22" width="93.5390625" y="156" x="36.5234375" class="er attributeBoxOdd"/><text style="dominant-baseline: middle; font-size: 10.2px;" transform="translate(41.5234375,167)" y="0" x="0" id="text-entity-Account-3e57c4b6-cd9d-514f-a2f6-ac5478bb332e-attr-7-name" class="er entityLabel">expires_at</text><rect height="22" width="21.5625" y="156" x="130.0625" class="er attributeBoxOdd"/><text style="dominant-baseline: middle; font-size: 10.2px;" transform="translate(135.0625,167)" y="0" x="0" id="text-entity-Account-3e57c4b6-cd9d-514f-a2f6-ac5478bb332e-attr-7-key" class="er entityLabel"/><rect height="22" width="46.78125" y="156" x="151.625" class="er attributeBoxOdd"/><text style="dominant-baseline: middle; font-size: 10.2px;" transform="translate(156.625,167)" y="0" x="0" id="text-entity-Account-3e57c4b6-cd9d-514f-a2f6-ac5478bb332e-attr-7-comment" class="er entityLabel">nullable</text><rect height="22" width="36.5234375" y="178" x="0" class="er attributeBoxEven"/><text style="dominant-baseline: middle; font-size: 10.2px;" transform="translate(5,189)" y="0" x="0" id="text-entity-Account-3e57c4b6-cd9d-514f-a2f6-ac5478bb332e-attr-8-type" class="er entityLabel">String</text><rect height="22" width="93.5390625" y="178" x="36.5234375" class="er attributeBoxEven"/><text style="dominant-baseline: middle; font-size: 10.2px;" transform="translate(41.5234375,189)" y="0" x="0" id="text-entity-Account-3e57c4b6-cd9d-514f-a2f6-ac5478bb332e-attr-8-name" class="er entityLabel">token_type</text><rect height="22" width="21.5625" y="178" x="130.0625" class="er attributeBoxEven"/><text style="dominant-baseline: middle; font-size: 10.2px;" transform="translate(135.0625,189)" y="0" x="0" id="text-entity-Account-3e57c4b6-cd9d-514f-a2f6-ac5478bb332e-attr-8-key" class="er entityLabel"/><rect height="22" width="46.78125" y="178" x="151.625" class="er attributeBoxEven"/><text style="dominant-baseline: middle; font-size: 10.2px;" transform="translate(156.625,189)" y="0" x="0" id="text-entity-Account-3e57c4b6-cd9d-514f-a2f6-ac5478bb332e-attr-8-comment" class="er entityLabel">nullable</text><rect height="22" width="36.5234375" y="200" x="0" class="er attributeBoxOdd"/><text style="dominant-baseline: middle; font-size: 10.2px;" transform="translate(5,211)" y="0" x="0" id="text-entity-Account-3e57c4b6-cd9d-514f-a2f6-ac5478bb332e-attr-9-type" class="er entityLabel">String</text><rect height="22" width="93.5390625" y="200" x="36.5234375" class="er attributeBoxOdd"/><text style="dominant-baseline: middle; font-size: 10.2px;" transform="translate(41.5234375,211)" y="0" x="0" id="text-entity-Account-3e57c4b6-cd9d-514f-a2f6-ac5478bb332e-attr-9-name" class="er entityLabel">scope</text><rect height="22" width="21.5625" y="200" x="130.0625" class="er attributeBoxOdd"/><text style="dominant-baseline: middle; font-size: 10.2px;" transform="translate(135.0625,211)" y="0" x="0" id="text-entity-Account-3e57c4b6-cd9d-514f-a2f6-ac5478bb332e-attr-9-key" class="er entityLabel"/><rect height="22" width="46.78125" y="200" x="151.625" class="er attributeBoxOdd"/><text style="dominant-baseline: middle; font-size: 10.2px;" transform="translate(156.625,211)" y="0" x="0" id="text-entity-Account-3e57c4b6-cd9d-514f-a2f6-ac5478bb332e-attr-9-comment" class="er entityLabel">nullable</text><rect height="22" width="36.5234375" y="222" x="0" class="er attributeBoxEven"/><text style="dominant-baseline: middle; font-size: 10.2px;" transform="translate(5,233)" y="0" x="0" id="text-entity-Account-3e57c4b6-cd9d-514f-a2f6-ac5478bb332e-attr-10-type" class="er entityLabel">String</text><rect height="22" width="93.5390625" y="222" x="36.5234375" class="er attributeBoxEven"/><text style="dominant-baseline: middle; font-size: 10.2px;" transform="translate(41.5234375,233)" y="0" x="0" id="text-entity-Account-3e57c4b6-cd9d-514f-a2f6-ac5478bb332e-attr-10-name" class="er entityLabel">id_token</text><rect height="22" width="21.5625" y="222" x="130.0625" class="er attributeBoxEven"/><text style="dominant-baseline: middle; font-size: 10.2px;" transform="translate(135.0625,233)" y="0" x="0" id="text-entity-Account-3e57c4b6-cd9d-514f-a2f6-ac5478bb332e-attr-10-key" class="er entityLabel"/><rect height="22" width="46.78125" y="222" x="151.625" class="er attributeBoxEven"/><text style="dominant-baseline: middle; font-size: 10.2px;" transform="translate(156.625,233)" y="0" x="0" id="text-entity-Account-3e57c4b6-cd9d-514f-a2f6-ac5478bb332e-attr-10-comment" class="er entityLabel">nullable</text><rect height="22" width="36.5234375" y="244" x="0" class="er attributeBoxOdd"/><text style="dominant-baseline: middle; font-size: 10.2px;" transform="translate(5,255)" y="0" x="0" id="text-entity-Account-3e57c4b6-cd9d-514f-a2f6-ac5478bb332e-attr-11-type" class="er entityLabel">String</text><rect height="22" width="93.5390625" y="244" x="36.5234375" class="er attributeBoxOdd"/><text style="dominant-baseline: middle; font-size: 10.2px;" transform="translate(41.5234375,255)" y="0" x="0" id="text-entity-Account-3e57c4b6-cd9d-514f-a2f6-ac5478bb332e-attr-11-name" class="er entityLabel">session_state</text><rect height="22" width="21.5625" y="244" x="130.0625" class="er attributeBoxOdd"/><text style="dominant-baseline: middle; font-size: 10.2px;" transform="translate(135.0625,255)" y="0" x="0" id="text-entity-Account-3e57c4b6-cd9d-514f-a2f6-ac5478bb332e-attr-11-key" class="er entityLabel"/><rect height="22" width="46.78125" y="244" x="151.625" class="er attributeBoxOdd"/><text style="dominant-baseline: middle; font-size: 10.2px;" transform="translate(156.625,255)" y="0" x="0" id="text-entity-Account-3e57c4b6-cd9d-514f-a2f6-ac5478bb332e-attr-11-comment" class="er entityLabel">nullable</text></g><g transform="translate(318.40625,532 )" id="entity-Session-087c087e-5b46-5a6f-a710-5a009604ebd7"><rect height="90" width="143.5390625" y="0" x="0" class="er entityBox"/><text style="dominant-baseline: middle; text-anchor: middle; font-size: 12px;" transform="translate(71.76953125,12)" y="0" x="0" id="text-entity-Session-087c087e-5b46-5a6f-a710-5a009604ebd7" class="er entityLabel">Session</text><rect height="22" width="53.6640625" y="24" x="0" class="er attributeBoxOdd"/><text style="dominant-baseline: middle; font-size: 10.2px;" transform="translate(5,35)" y="0" x="0" id="text-entity-Session-087c087e-5b46-5a6f-a710-5a009604ebd7-attr-1-type" class="er entityLabel">String</text><rect height="22" width="68.3125" y="24" x="53.6640625" class="er attributeBoxOdd"/><text style="dominant-baseline: middle; font-size: 10.2px;" transform="translate(58.6640625,35)" y="0" x="0" id="text-entity-Session-087c087e-5b46-5a6f-a710-5a009604ebd7-attr-1-name" class="er entityLabel">id</text><rect height="22" width="21.5625" y="24" x="121.9765625" class="er attributeBoxOdd"/><text style="dominant-baseline: middle; font-size: 10.2px;" transform="translate(126.9765625,35)" y="0" x="0" id="text-entity-Session-087c087e-5b46-5a6f-a710-5a009604ebd7-attr-1-key" class="er entityLabel">PK</text><rect height="22" width="53.6640625" y="46" x="0" class="er attributeBoxEven"/><text style="dominant-baseline: middle; font-size: 10.2px;" transform="translate(5,57)" y="0" x="0" id="text-entity-Session-087c087e-5b46-5a6f-a710-5a009604ebd7-attr-2-type" class="er entityLabel">String</text><rect height="22" width="68.3125" y="46" x="53.6640625" class="er attributeBoxEven"/><text style="dominant-baseline: middle; font-size: 10.2px;" transform="translate(58.6640625,57)" y="0" x="0" id="text-entity-Session-087c087e-5b46-5a6f-a710-5a009604ebd7-attr-2-name" class="er entityLabel">sessionToken</text><rect height="22" width="21.5625" y="46" x="121.9765625" class="er attributeBoxEven"/><text style="dominant-baseline: middle; font-size: 10.2px;" transform="translate(126.9765625,57)" y="0" x="0" id="text-entity-Session-087c087e-5b46-5a6f-a710-5a009604ebd7-attr-2-key" class="er entityLabel"/><rect height="22" width="53.6640625" y="68" x="0" class="er attributeBoxOdd"/><text style="dominant-baseline: middle; font-size: 10.2px;" transform="translate(5,79)" y="0" x="0" id="text-entity-Session-087c087e-5b46-5a6f-a710-5a009604ebd7-attr-3-type" class="er entityLabel">DateTime</text><rect height="22" width="68.3125" y="68" x="53.6640625" class="er attributeBoxOdd"/><text style="dominant-baseline: middle; font-size: 10.2px;" transform="translate(58.6640625,79)" y="0" x="0" id="text-entity-Session-087c087e-5b46-5a6f-a710-5a009604ebd7-attr-3-name" class="er entityLabel">expires</text><rect height="22" width="21.5625" y="68" x="121.9765625" class="er attributeBoxOdd"/><text style="dominant-baseline: middle; font-size: 10.2px;" transform="translate(126.9765625,79)" y="0" x="0" id="text-entity-Session-087c087e-5b46-5a6f-a710-5a009604ebd7-attr-3-key" class="er entityLabel"/></g><g transform="translate(293.66796875,810 )" id="entity-User-818c511a-4a32-5484-ba70-875d765a9175"><rect height="134" width="193.015625" y="0" x="0" class="er entityBox"/><text style="dominant-baseline: middle; text-anchor: middle; font-size: 12px;" transform="translate(96.5078125,12)" y="0" x="0" id="text-entity-User-818c511a-4a32-5484-ba70-875d765a9175" class="er entityLabel">User</text><rect height="22" width="53.6640625" y="24" x="0" class="er attributeBoxOdd"/><text style="dominant-baseline: middle; font-size: 10.2px;" transform="translate(5,35)" y="0" x="0" id="text-entity-User-818c511a-4a32-5484-ba70-875d765a9175-attr-1-type" class="er entityLabel">String</text><rect height="22" width="71.0078125" y="24" x="53.6640625" class="er attributeBoxOdd"/><text style="dominant-baseline: middle; font-size: 10.2px;" transform="translate(58.6640625,35)" y="0" x="0" id="text-entity-User-818c511a-4a32-5484-ba70-875d765a9175-attr-1-name" class="er entityLabel">id</text><rect height="22" width="21.5625" y="24" x="124.671875" class="er attributeBoxOdd"/><text style="dominant-baseline: middle; font-size: 10.2px;" transform="translate(129.671875,35)" y="0" x="0" id="text-entity-User-818c511a-4a32-5484-ba70-875d765a9175-attr-1-key" class="er entityLabel">PK</text><rect height="22" width="46.78125" y="24" x="146.234375" class="er attributeBoxOdd"/><text style="dominant-baseline: middle; font-size: 10.2px;" transform="translate(151.234375,35)" y="0" x="0" id="text-entity-User-818c511a-4a32-5484-ba70-875d765a9175-attr-1-comment" class="er entityLabel"/><rect height="22" width="53.6640625" y="46" x="0" class="er attributeBoxEven"/><text style="dominant-baseline: middle; font-size: 10.2px;" transform="translate(5,57)" y="0" x="0" id="text-entity-User-818c511a-4a32-5484-ba70-875d765a9175-attr-2-type" class="er entityLabel">String</text><rect height="22" width="71.0078125" y="46" x="53.6640625" class="er attributeBoxEven"/><text style="dominant-baseline: middle; font-size: 10.2px;" transform="translate(58.6640625,57)" y="0" x="0" id="text-entity-User-818c511a-4a32-5484-ba70-875d765a9175-attr-2-name" class="er entityLabel">name</text><rect height="22" width="21.5625" y="46" x="124.671875" class="er attributeBoxEven"/><text style="dominant-baseline: middle; font-size: 10.2px;" transform="translate(129.671875,57)" y="0" x="0" id="text-entity-User-818c511a-4a32-5484-ba70-875d765a9175-attr-2-key" class="er entityLabel"/><rect height="22" width="46.78125" y="46" x="146.234375" class="er attributeBoxEven"/><text style="dominant-baseline: middle; font-size: 10.2px;" transform="translate(151.234375,57)" y="0" x="0" id="text-entity-User-818c511a-4a32-5484-ba70-875d765a9175-attr-2-comment" class="er entityLabel">nullable</text><rect height="22" width="53.6640625" y="68" x="0" class="er attributeBoxOdd"/><text style="dominant-baseline: middle; font-size: 10.2px;" transform="translate(5,79)" y="0" x="0" id="text-entity-User-818c511a-4a32-5484-ba70-875d765a9175-attr-3-type" class="er entityLabel">String</text><rect height="22" width="71.0078125" y="68" x="53.6640625" class="er attributeBoxOdd"/><text style="dominant-baseline: middle; font-size: 10.2px;" transform="translate(58.6640625,79)" y="0" x="0" id="text-entity-User-818c511a-4a32-5484-ba70-875d765a9175-attr-3-name" class="er entityLabel">email</text><rect height="22" width="21.5625" y="68" x="124.671875" class="er attributeBoxOdd"/><text style="dominant-baseline: middle; font-size: 10.2px;" transform="translate(129.671875,79)" y="0" x="0" id="text-entity-User-818c511a-4a32-5484-ba70-875d765a9175-attr-3-key" class="er entityLabel"/><rect height="22" width="46.78125" y="68" x="146.234375" class="er attributeBoxOdd"/><text style="dominant-baseline: middle; font-size: 10.2px;" transform="translate(151.234375,79)" y="0" x="0" id="text-entity-User-818c511a-4a32-5484-ba70-875d765a9175-attr-3-comment" class="er entityLabel">nullable</text><rect height="22" width="53.6640625" y="90" x="0" class="er attributeBoxEven"/><text style="dominant-baseline: middle; font-size: 10.2px;" transform="translate(5,101)" y="0" x="0" id="text-entity-User-818c511a-4a32-5484-ba70-875d765a9175-attr-4-type" class="er entityLabel">DateTime</text><rect height="22" width="71.0078125" y="90" x="53.6640625" class="er attributeBoxEven"/><text style="dominant-baseline: middle; font-size: 10.2px;" transform="translate(58.6640625,101)" y="0" x="0" id="text-entity-User-818c511a-4a32-5484-ba70-875d765a9175-attr-4-name" class="er entityLabel">emailVerified</text><rect height="22" width="21.5625" y="90" x="124.671875" class="er attributeBoxEven"/><text style="dominant-baseline: middle; font-size: 10.2px;" transform="translate(129.671875,101)" y="0" x="0" id="text-entity-User-818c511a-4a32-5484-ba70-875d765a9175-attr-4-key" class="er entityLabel"/><rect height="22" width="46.78125" y="90" x="146.234375" class="er attributeBoxEven"/><text style="dominant-baseline: middle; font-size: 10.2px;" transform="translate(151.234375,101)" y="0" x="0" id="text-entity-User-818c511a-4a32-5484-ba70-875d765a9175-attr-4-comment" class="er entityLabel">nullable</text><rect height="22" width="53.6640625" y="112" x="0" class="er attributeBoxOdd"/><text style="dominant-baseline: middle; font-size: 10.2px;" transform="translate(5,123)" y="0" x="0" id="text-entity-User-818c511a-4a32-5484-ba70-875d765a9175-attr-5-type" class="er entityLabel">String</text><rect height="22" width="71.0078125" y="112" x="53.6640625" class="er attributeBoxOdd"/><text style="dominant-baseline: middle; font-size: 10.2px;" transform="translate(58.6640625,123)" y="0" x="0" id="text-entity-User-818c511a-4a32-5484-ba70-875d765a9175-attr-5-name" class="er entityLabel">image</text><rect height="22" width="21.5625" y="112" x="124.671875" class="er attributeBoxOdd"/><text style="dominant-baseline: middle; font-size: 10.2px;" transform="translate(129.671875,123)" y="0" x="0" id="text-entity-User-818c511a-4a32-5484-ba70-875d765a9175-attr-5-key" class="er entityLabel"/><rect height="22" width="46.78125" y="112" x="146.234375" class="er attributeBoxOdd"/><text style="dominant-baseline: middle; font-size: 10.2px;" transform="translate(151.234375,123)" y="0" x="0" id="text-entity-User-818c511a-4a32-5484-ba70-875d765a9175-attr-5-comment" class="er entityLabel">nullable</text></g><g transform="translate(238.990234375,20 )" id="entity-VerificationToken-962d7f37-815d-52d1-ae4d-eb767410e383"><rect height="90" width="123.2578125" y="0" x="0" class="er entityBox"/><text style="dominant-baseline: middle; text-anchor: middle; font-size: 12px;" transform="translate(61.62890625,12)" y="0" x="0" id="text-entity-VerificationToken-962d7f37-815d-52d1-ae4d-eb767410e383" class="er entityLabel">VerificationToken</text><rect height="22" width="62.015625" y="24" x="0" class="er attributeBoxOdd"/><text style="dominant-baseline: middle; font-size: 10.2px;" transform="translate(5,35)" y="0" x="0" id="text-entity-VerificationToken-962d7f37-815d-52d1-ae4d-eb767410e383-attr-1-type" class="er entityLabel">String</text><rect height="22" width="61.2421875" y="24" x="62.015625" class="er attributeBoxOdd"/><text style="dominant-baseline: middle; font-size: 10.2px;" transform="translate(67.015625,35)" y="0" x="0" id="text-entity-VerificationToken-962d7f37-815d-52d1-ae4d-eb767410e383-attr-1-name" class="er entityLabel">identifier</text><rect height="22" width="62.015625" y="46" x="0" class="er attributeBoxEven"/><text style="dominant-baseline: middle; font-size: 10.2px;" transform="translate(5,57)" y="0" x="0" id="text-entity-VerificationToken-962d7f37-815d-52d1-ae4d-eb767410e383-attr-2-type" class="er entityLabel">String</text><rect height="22" width="61.2421875" y="46" x="62.015625" class="er attributeBoxEven"/><text style="dominant-baseline: middle; font-size: 10.2px;" transform="translate(67.015625,57)" y="0" x="0" id="text-entity-VerificationToken-962d7f37-815d-52d1-ae4d-eb767410e383-attr-2-name" class="er entityLabel">token</text><rect height="22" width="62.015625" y="68" x="0" class="er attributeBoxOdd"/><text style="dominant-baseline: middle; font-size: 10.2px;" transform="translate(5,79)" y="0" x="0" id="text-entity-VerificationToken-962d7f37-815d-52d1-ae4d-eb767410e383-attr-3-type" class="er entityLabel">DateTime</text><rect height="22" width="61.2421875" y="68" x="62.015625" class="er attributeBoxOdd"/><text style="dominant-baseline: middle; font-size: 10.2px;" transform="translate(67.015625,79)" y="0" x="0" id="text-entity-VerificationToken-962d7f37-815d-52d1-ae4d-eb767410e383-attr-3-name" class="er entityLabel">expires</text></g><g transform="translate(337.88671875,210 )" id="entity-Case-9095d7a8-f8f1-5dcb-9e35-bba27d9d6e05"><rect height="134" width="129.046875" y="0" x="0" class="er entityBox"/><text style="dominant-baseline: middle; text-anchor: middle; font-size: 12px;" transform="translate(64.5234375,12)" y="0" x="0" id="text-entity-Case-9095d7a8-f8f1-5dcb-9e35-bba27d9d6e05" class="er entityLabel">Case</text><rect height="22" width="53.6640625" y="24" x="0" class="er attributeBoxOdd"/><text style="dominant-baseline: middle; font-size: 10.2px;" transform="translate(5,35)" y="0" x="0" id="text-entity-Case-9095d7a8-f8f1-5dcb-9e35-bba27d9d6e05-attr-1-type" class="er entityLabel">Int</text><rect height="22" width="53.8203125" y="24" x="53.6640625" class="er attributeBoxOdd"/><text style="dominant-baseline: middle; font-size: 10.2px;" transform="translate(58.6640625,35)" y="0" x="0" id="text-entity-Case-9095d7a8-f8f1-5dcb-9e35-bba27d9d6e05-attr-1-name" class="er entityLabel">id</text><rect height="22" width="21.5625" y="24" x="107.484375" class="er attributeBoxOdd"/><text style="dominant-baseline: middle; font-size: 10.2px;" transform="translate(112.484375,35)" y="0" x="0" id="text-entity-Case-9095d7a8-f8f1-5dcb-9e35-bba27d9d6e05-attr-1-key" class="er entityLabel">PK</text><rect height="22" width="53.6640625" y="46" x="0" class="er attributeBoxEven"/><text style="dominant-baseline: middle; font-size: 10.2px;" transform="translate(5,57)" y="0" x="0" id="text-entity-Case-9095d7a8-f8f1-5dcb-9e35-bba27d9d6e05-attr-2-type" class="er entityLabel">String</text><rect height="22" width="53.8203125" y="46" x="53.6640625" class="er attributeBoxEven"/><text style="dominant-baseline: middle; font-size: 10.2px;" transform="translate(58.6640625,57)" y="0" x="0" id="text-entity-Case-9095d7a8-f8f1-5dcb-9e35-bba27d9d6e05-attr-2-name" class="er entityLabel">problem</text><rect height="22" width="21.5625" y="46" x="107.484375" class="er attributeBoxEven"/><text style="dominant-baseline: middle; font-size: 10.2px;" transform="translate(112.484375,57)" y="0" x="0" id="text-entity-Case-9095d7a8-f8f1-5dcb-9e35-bba27d9d6e05-attr-2-key" class="er entityLabel"/><rect height="22" width="53.6640625" y="68" x="0" class="er attributeBoxOdd"/><text style="dominant-baseline: middle; font-size: 10.2px;" transform="translate(5,79)" y="0" x="0" id="text-entity-Case-9095d7a8-f8f1-5dcb-9e35-bba27d9d6e05-attr-3-type" class="er entityLabel">String</text><rect height="22" width="53.8203125" y="68" x="53.6640625" class="er attributeBoxOdd"/><text style="dominant-baseline: middle; font-size: 10.2px;" transform="translate(58.6640625,79)" y="0" x="0" id="text-entity-Case-9095d7a8-f8f1-5dcb-9e35-bba27d9d6e05-attr-3-name" class="er entityLabel">solution</text><rect height="22" width="21.5625" y="68" x="107.484375" class="er attributeBoxOdd"/><text style="dominant-baseline: middle; font-size: 10.2px;" transform="translate(112.484375,79)" y="0" x="0" id="text-entity-Case-9095d7a8-f8f1-5dcb-9e35-bba27d9d6e05-attr-3-key" class="er entityLabel"/><rect height="22" width="53.6640625" y="90" x="0" class="er attributeBoxEven"/><text style="dominant-baseline: middle; font-size: 10.2px;" transform="translate(5,101)" y="0" x="0" id="text-entity-Case-9095d7a8-f8f1-5dcb-9e35-bba27d9d6e05-attr-4-type" class="er entityLabel">String</text><rect height="22" width="53.8203125" y="90" x="53.6640625" class="er attributeBoxEven"/><text style="dominant-baseline: middle; font-size: 10.2px;" transform="translate(58.6640625,101)" y="0" x="0" id="text-entity-Case-9095d7a8-f8f1-5dcb-9e35-bba27d9d6e05-attr-4-name" class="er entityLabel">computer</text><rect height="22" width="21.5625" y="90" x="107.484375" class="er attributeBoxEven"/><text style="dominant-baseline: middle; font-size: 10.2px;" transform="translate(112.484375,101)" y="0" x="0" id="text-entity-Case-9095d7a8-f8f1-5dcb-9e35-bba27d9d6e05-attr-4-key" class="er entityLabel"/><rect height="22" width="53.6640625" y="112" x="0" class="er attributeBoxOdd"/><text style="dominant-baseline: middle; font-size: 10.2px;" transform="translate(5,123)" y="0" x="0" id="text-entity-Case-9095d7a8-f8f1-5dcb-9e35-bba27d9d6e05-attr-5-type" class="er entityLabel">DateTime</text><rect height="22" width="53.8203125" y="112" x="53.6640625" class="er attributeBoxOdd"/><text style="dominant-baseline: middle; font-size: 10.2px;" transform="translate(58.6640625,123)" y="0" x="0" id="text-entity-Case-9095d7a8-f8f1-5dcb-9e35-bba27d9d6e05-attr-5-name" class="er entityLabel">date</text><rect height="22" width="21.5625" y="112" x="107.484375" class="er attributeBoxOdd"/><text style="dominant-baseline: middle; font-size: 10.2px;" transform="translate(112.484375,123)" y="0" x="0" id="text-entity-Case-9095d7a8-f8f1-5dcb-9e35-bba27d9d6e05-attr-5-key" class="er entityLabel"/></g><g transform="translate(566.93359375,221 )" id="entity-Symptom-6482aa38-eb67-5fed-a675-649b68f48a08"><rect height="112" width="119.0703125" y="0" x="0" class="er entityBox"/><text style="dominant-baseline: middle; text-anchor: middle; font-size: 12px;" transform="translate(59.53515625,12)" y="0" x="0" id="text-entity-Symptom-6482aa38-eb67-5fed-a675-649b68f48a08" class="er entityLabel">Symptom</text><rect height="22" width="36.5234375" y="24" x="0" class="er attributeBoxOdd"/><text style="dominant-baseline: middle; font-size: 10.2px;" transform="translate(5,35)" y="0" x="0" id="text-entity-Symptom-6482aa38-eb67-5fed-a675-649b68f48a08-attr-1-type" class="er entityLabel">Int</text><rect height="22" width="60.984375" y="24" x="36.5234375" class="er attributeBoxOdd"/><text style="dominant-baseline: middle; font-size: 10.2px;" transform="translate(41.5234375,35)" y="0" x="0" id="text-entity-Symptom-6482aa38-eb67-5fed-a675-649b68f48a08-attr-1-name" class="er entityLabel">id</text><rect height="22" width="21.5625" y="24" x="97.5078125" class="er attributeBoxOdd"/><text style="dominant-baseline: middle; font-size: 10.2px;" transform="translate(102.5078125,35)" y="0" x="0" id="text-entity-Symptom-6482aa38-eb67-5fed-a675-649b68f48a08-attr-1-key" class="er entityLabel">PK</text><rect height="22" width="36.5234375" y="46" x="0" class="er attributeBoxEven"/><text style="dominant-baseline: middle; font-size: 10.2px;" transform="translate(5,57)" y="0" x="0" id="text-entity-Symptom-6482aa38-eb67-5fed-a675-649b68f48a08-attr-2-type" class="er entityLabel">String</text><rect height="22" width="60.984375" y="46" x="36.5234375" class="er attributeBoxEven"/><text style="dominant-baseline: middle; font-size: 10.2px;" transform="translate(41.5234375,57)" y="0" x="0" id="text-entity-Symptom-6482aa38-eb67-5fed-a675-649b68f48a08-attr-2-name" class="er entityLabel">description</text><rect height="22" width="21.5625" y="46" x="97.5078125" class="er attributeBoxEven"/><text style="dominant-baseline: middle; font-size: 10.2px;" transform="translate(102.5078125,57)" y="0" x="0" id="text-entity-Symptom-6482aa38-eb67-5fed-a675-649b68f48a08-attr-2-key" class="er entityLabel"/><rect height="22" width="36.5234375" y="68" x="0" class="er attributeBoxOdd"/><text style="dominant-baseline: middle; font-size: 10.2px;" transform="translate(5,79)" y="0" x="0" id="text-entity-Symptom-6482aa38-eb67-5fed-a675-649b68f48a08-attr-3-type" class="er entityLabel">String</text><rect height="22" width="60.984375" y="68" x="36.5234375" class="er attributeBoxOdd"/><text style="dominant-baseline: middle; font-size: 10.2px;" transform="translate(41.5234375,79)" y="0" x="0" id="text-entity-Symptom-6482aa38-eb67-5fed-a675-649b68f48a08-attr-3-name" class="er entityLabel">type</text><rect height="22" width="21.5625" y="68" x="97.5078125" class="er attributeBoxOdd"/><text style="dominant-baseline: middle; font-size: 10.2px;" transform="translate(102.5078125,79)" y="0" x="0" id="text-entity-Symptom-6482aa38-eb67-5fed-a675-649b68f48a08-attr-3-key" class="er entityLabel"/><rect height="22" width="36.5234375" y="90" x="0" class="er attributeBoxEven"/><text style="dominant-baseline: middle; font-size: 10.2px;" transform="translate(5,101)" y="0" x="0" id="text-entity-Symptom-6482aa38-eb67-5fed-a675-649b68f48a08-attr-4-type" class="er entityLabel">Float</text><rect height="22" width="60.984375" y="90" x="36.5234375" class="er attributeBoxEven"/><text style="dominant-baseline: middle; font-size: 10.2px;" transform="translate(41.5234375,101)" y="0" x="0" id="text-entity-Symptom-6482aa38-eb67-5fed-a675-649b68f48a08-attr-4-name" class="er entityLabel">weight</text><rect height="22" width="21.5625" y="90" x="97.5078125" class="er attributeBoxEven"/><text style="dominant-baseline: middle; font-size: 10.2px;" transform="translate(102.5078125,101)" y="0" x="0" id="text-entity-Symptom-6482aa38-eb67-5fed-a675-649b68f48a08-attr-4-key" class="er entityLabel"/></g><g transform="translate(462.248046875,42 )" id="entity-CaseSymptom-b1d98901-9adc-55fd-aa54-3e792629c345"><rect height="46" width="104.3828125" y="0" x="0" class="er entityBox"/><text style="dominant-baseline: middle; text-anchor: middle; font-size: 12px;" transform="translate(52.19140625,12)" y="0" x="0" id="text-entity-CaseSymptom-b1d98901-9adc-55fd-aa54-3e792629c345" class="er entityLabel">CaseSymptom</text><rect height="22" width="36.3828125" y="24" x="0" class="er attributeBoxOdd"/><text style="dominant-baseline: middle; font-size: 10.2px;" transform="translate(5,35)" y="0" x="0" id="text-entity-CaseSymptom-b1d98901-9adc-55fd-aa54-3e792629c345-attr-1-type" class="er entityLabel">Int</text><rect height="22" width="32.515625" y="24" x="36.3828125" class="er attributeBoxOdd"/><text style="dominant-baseline: middle; font-size: 10.2px;" transform="translate(41.3828125,35)" y="0" x="0" id="text-entity-CaseSymptom-b1d98901-9adc-55fd-aa54-3e792629c345-attr-1-name" class="er entityLabel">id</text><rect height="22" width="35.484375" y="24" x="68.8984375" class="er attributeBoxOdd"/><text style="dominant-baseline: middle; font-size: 10.2px;" transform="translate(73.8984375,35)" y="0" x="0" id="text-entity-CaseSymptom-b1d98901-9adc-55fd-aa54-3e792629c345-attr-1-key" class="er entityLabel">PK</text></g><g transform="translate(561.9453125,510 )" id="entity-HistoryDiagnosa-e77374d9-1b12-5864-b149-bc4d879942ed"><rect height="134" width="129.046875" y="0" x="0" class="er entityBox"/><text style="dominant-baseline: middle; text-anchor: middle; font-size: 12px;" transform="translate(64.5234375,12)" y="0" x="0" id="text-entity-HistoryDiagnosa-e77374d9-1b12-5864-b149-bc4d879942ed" class="er entityLabel">HistoryDiagnosa</text><rect height="22" width="53.6640625" y="24" x="0" class="er attributeBoxOdd"/><text style="dominant-baseline: middle; font-size: 10.2px;" transform="translate(5,35)" y="0" x="0" id="text-entity-HistoryDiagnosa-e77374d9-1b12-5864-b149-bc4d879942ed-attr-1-type" class="er entityLabel">Int</text><rect height="22" width="53.8203125" y="24" x="53.6640625" class="er attributeBoxOdd"/><text style="dominant-baseline: middle; font-size: 10.2px;" transform="translate(58.6640625,35)" y="0" x="0" id="text-entity-HistoryDiagnosa-e77374d9-1b12-5864-b149-bc4d879942ed-attr-1-name" class="er entityLabel">id</text><rect height="22" width="21.5625" y="24" x="107.484375" class="er attributeBoxOdd"/><text style="dominant-baseline: middle; font-size: 10.2px;" transform="translate(112.484375,35)" y="0" x="0" id="text-entity-HistoryDiagnosa-e77374d9-1b12-5864-b149-bc4d879942ed-attr-1-key" class="er entityLabel">PK</text><rect height="22" width="53.6640625" y="46" x="0" class="er attributeBoxEven"/><text style="dominant-baseline: middle; font-size: 10.2px;" transform="translate(5,57)" y="0" x="0" id="text-entity-HistoryDiagnosa-e77374d9-1b12-5864-b149-bc4d879942ed-attr-2-type" class="er entityLabel">DateTime</text><rect height="22" width="53.8203125" y="46" x="53.6640625" class="er attributeBoxEven"/><text style="dominant-baseline: middle; font-size: 10.2px;" transform="translate(58.6640625,57)" y="0" x="0" id="text-entity-HistoryDiagnosa-e77374d9-1b12-5864-b149-bc4d879942ed-attr-2-name" class="er entityLabel">date</text><rect height="22" width="21.5625" y="46" x="107.484375" class="er attributeBoxEven"/><text style="dominant-baseline: middle; font-size: 10.2px;" transform="translate(112.484375,57)" y="0" x="0" id="text-entity-HistoryDiagnosa-e77374d9-1b12-5864-b149-bc4d879942ed-attr-2-key" class="er entityLabel"/><rect height="22" width="53.6640625" y="68" x="0" class="er attributeBoxOdd"/><text style="dominant-baseline: middle; font-size: 10.2px;" transform="translate(5,79)" y="0" x="0" id="text-entity-HistoryDiagnosa-e77374d9-1b12-5864-b149-bc4d879942ed-attr-3-type" class="er entityLabel">String</text><rect height="22" width="53.8203125" y="68" x="53.6640625" class="er attributeBoxOdd"/><text style="dominant-baseline: middle; font-size: 10.2px;" transform="translate(58.6640625,79)" y="0" x="0" id="text-entity-HistoryDiagnosa-e77374d9-1b12-5864-b149-bc4d879942ed-attr-3-name" class="er entityLabel">problem</text><rect height="22" width="21.5625" y="68" x="107.484375" class="er attributeBoxOdd"/><text style="dominant-baseline: middle; font-size: 10.2px;" transform="translate(112.484375,79)" y="0" x="0" id="text-entity-HistoryDiagnosa-e77374d9-1b12-5864-b149-bc4d879942ed-attr-3-key" class="er entityLabel"/><rect height="22" width="53.6640625" y="90" x="0" class="er attributeBoxEven"/><text style="dominant-baseline: middle; font-size: 10.2px;" transform="translate(5,101)" y="0" x="0" id="text-entity-HistoryDiagnosa-e77374d9-1b12-5864-b149-bc4d879942ed-attr-4-type" class="er entityLabel">String</text><rect height="22" width="53.8203125" y="90" x="53.6640625" class="er attributeBoxEven"/><text style="dominant-baseline: middle; font-size: 10.2px;" transform="translate(58.6640625,101)" y="0" x="0" id="text-entity-HistoryDiagnosa-e77374d9-1b12-5864-b149-bc4d879942ed-attr-4-name" class="er entityLabel">solution</text><rect height="22" width="21.5625" y="90" x="107.484375" class="er attributeBoxEven"/><text style="dominant-baseline: middle; font-size: 10.2px;" transform="translate(112.484375,101)" y="0" x="0" id="text-entity-HistoryDiagnosa-e77374d9-1b12-5864-b149-bc4d879942ed-attr-4-key" class="er entityLabel"/><rect height="22" width="53.6640625" y="112" x="0" class="er attributeBoxOdd"/><text style="dominant-baseline: middle; font-size: 10.2px;" transform="translate(5,123)" y="0" x="0" id="text-entity-HistoryDiagnosa-e77374d9-1b12-5864-b149-bc4d879942ed-attr-5-type" class="er entityLabel">String</text><rect height="22" width="53.8203125" y="112" x="53.6640625" class="er attributeBoxOdd"/><text style="dominant-baseline: middle; font-size: 10.2px;" transform="translate(58.6640625,123)" y="0" x="0" id="text-entity-HistoryDiagnosa-e77374d9-1b12-5864-b149-bc4d879942ed-attr-5-name" class="er entityLabel">computer</text><rect height="22" width="21.5625" y="112" x="107.484375" class="er attributeBoxOdd"/><text style="dominant-baseline: middle; font-size: 10.2px;" transform="translate(112.484375,123)" y="0" x="0" id="text-entity-HistoryDiagnosa-e77374d9-1b12-5864-b149-bc4d879942ed-attr-5-key" class="er entityLabel"/></g><rect height="14" width="22.625" y="781.6021728515625" x="178.85060119628906" class="er relationshipLabelBox"/><text style="text-anchor: middle; dominant-baseline: middle; font-size: 12px;" y="788.6021728515625" x="190.16310119628906" id="rel1" class="er relationshipLabel">user</text><rect height="14" width="22.625" y="709" x="378.86328125" class="er relationshipLabelBox"/><text style="text-anchor: middle; dominant-baseline: middle; font-size: 12px;" y="716" x="390.17578125" id="rel2" class="er relationshipLabel">user</text><rect height="14" width="85.1796875" y="414.5" x="583.87890625" class="er relationshipLabelBox"/><text style="text-anchor: middle; dominant-baseline: middle; font-size: 12px;" y="421.5" x="626.46875" id="rel3" class="er relationshipLabel">HistoryDiagnosa</text><rect height="14" width="23.6484375" y="133.1344757080078" x="418.02764892578125" class="er relationshipLabelBox"/><text style="text-anchor: middle; dominant-baseline: middle; font-size: 12px;" y="140.1344757080078" x="429.85186767578125" id="rel4" class="er relationshipLabel">case</text><rect height="14" width="48.5859375" y="137.36544799804688" x="577.7335205078125" class="er relationshipLabelBox"/><text style="text-anchor: middle; dominant-baseline: middle; font-size: 12px;" y="144.36544799804688" x="602.0264892578125" id="rel5" class="er relationshipLabel">symptom</text><rect height="14" width="22.625" y="755.7617797851562" x="582.7499389648438" class="er relationshipLabelBox"/><text style="text-anchor: middle; dominant-baseline: middle; font-size: 12px;" y="762.7617797851562" x="594.0624389648438" id="rel6" class="er relationshipLabel">user</text></svg>